<svg width="119" height="28" viewBox="0 0 119 28" fill="none" xmlns="http://www.w3.org/2000/svg">
    <path fill-rule="evenodd" clip-rule="evenodd" d="M17.628 11.957c-1.264 2.258-2.81 4.196-5.248 5.684L16.516 4H12.38l-2.89 9.503c-.793 1.027-1.728 1.855-2.833 1.855-1.463 0-1.604-1.149-1.217-2.523L8.102 4H3.966l-2.635 8.732c-.963 3.14-.17 6.079 3.428 6.079 1.445 0 2.606-.628 3.655-1.684l-.765 2.512-.423.11c-.251.063-.523.126-.807.193C3.779 20.558 0 21.44 0 24.632 0 26.603 1.473 28 3.966 28c2.436 0 5.694-1.427 7.45-7.22l.17-.57c2.268-1.07 4.038-2.427 5.49-4.144.295 1.707 1.456 2.934 3.718 2.934 1.996 0 3.542-1.185 4.497-2.37.253 1.358 1.097 2.37 2.924 2.37 1.607 0 3.073-.815 4.38-2.178L32 18.744h4.196l2.846-9.176c.66-1.051 1.61-2.102 2.816-2.102 1.43 0 1.518 1.43 1.146 2.722l-2.64 8.556h4.196l2.817-9.147c.66-1.08 1.638-2.131 2.845-2.131 1.523 0 1.495 1.562 1.063 2.898l-.92 2.954c-.747 2.415-.66 5.682 2.702 5.682 1.879 0 3.56-1.046 5.025-2.747.372 1.511 1.52 2.558 3.667 2.558 1.445 0 2.606-.628 3.655-1.684l-.765 2.512-.422.11c-.252.063-.524.126-.808.193-2.64.616-6.419 1.498-6.419 4.69C57 26.603 58.473 28 60.966 28c2.436 0 5.694-1.427 7.45-7.22l.17-.57c2.268-1.07 4.038-2.427 5.49-4.144.295 1.707 1.456 2.934 3.718 2.934 1.996 0 3.542-1.185 4.497-2.37.253 1.358 1.097 2.37 2.924 2.37 1.607 0 3.073-.815 4.38-2.178L89 18.744h4.196l2.846-9.176c.66-1.051 1.61-2.102 2.816-2.102 1.495 0 1.524 1.562 1.092 2.898l-2.586 8.38h4.196l2.817-9.147c.661-1.08 1.638-2.131 2.845-2.131 1.396 0 1.489 1.313 1.162 2.56l-.099.338-.919 2.954c-.748 2.415-.661 5.682 2.701 5.682 3.277 0 5.95-3.182 7.933-7.472-.287-.34-1.092-.767-1.638-.795-1.581 3.182-3.248 5.37-4.57 5.37-.862 0-.805-.91-.489-1.876l1.38-4.517c1.006-3.21-.288-5.71-3.449-5.71-1.897 0-3.42.994-4.599 2.358C104.29 4.966 103.256 4 101.445 4c-1.84 0-3.305 1.023-4.34 2.102l.575-1.846h-4.196l-1.964 6.346a1.24 1.24 0 0 0-.122-.012c-1.546 3.237-3.204 5.462-4.469 5.462-.794 0-.79-.87-.553-1.744L89.43 4h-4.103l-2.839 9.624c-.787 1.04-1.742 1.879-2.839 1.879-1.424 0-1.59-1.164-1.207-2.555L81.082 4H76.98l-2.351 7.957c-1.264 2.258-2.81 4.196-5.248 5.684L73.516 4H69.38l-2.89 9.503c-.793 1.027-1.728 1.855-2.833 1.855-1.463 0-1.604-1.149-1.217-2.523L65.102 4h-4.136l-2.578 8.544c-1.272 2.171-2.543 3.558-3.596 3.558-.812 0-.809-.805-.542-1.705l1.433-4.687C56.689 6.5 55.395 4 52.233 4c-1.896 0-3.42.994-4.598 2.358C47.29 4.966 46.255 4 44.445 4c-1.84 0-3.305 1.023-4.34 2.102l.575-1.846h-4.196l-1.964 6.346a1.24 1.24 0 0 0-.122-.012c-1.546 3.237-3.204 5.462-4.469 5.462-.794 0-.79-.87-.553-1.744L32.43 4h-4.104l-2.839 9.624c-.787 1.04-1.742 1.879-2.839 1.879-1.425 0-1.59-1.164-1.207-2.555L24.082 4H19.98l-2.351 7.957zM3.458 26C2.506 26 2 25.378 2 24.696c0-1.487 2.34-2.053 4.511-2.577h.003l.002-.001L7 22c-.804 2.548-2.113 4-3.542 4zm57 0C59.506 26 59 25.378 59 24.696c0-1.487 2.34-2.053 4.511-2.577h.001l.003-.001L64 22c-.804 2.548-2.113 4-3.542 4z" fill="#3F3B3B"/>
</svg>
